<mxfile host="Electron" modified="2024-01-07T15:25:35.949Z" agent="Mozilla/5.0 (Windows NT 10.0; Win64; x64) AppleWebKit/537.36 (KHTML, like Gecko) draw.io/22.1.16 Chrome/120.0.6099.109 Electron/28.1.0 Safari/537.36" etag="k35QKeMScIZFYtRFxya_" version="22.1.16" type="device">
  <diagram name="PÃ¡gina-1" id="FZwxbhz2h9sQsfbv1pmE">
    <mxGraphModel dx="1036" dy="606" grid="1" gridSize="10" guides="1" tooltips="1" connect="1" arrows="1" fold="1" page="1" pageScale="1" pageWidth="827" pageHeight="1169" math="0" shadow="0">
      <root>
        <mxCell id="0" />
        <mxCell id="1" parent="0" />
        <mxCell id="i7q-057S_SzwTGJfoeeh-1" value="&lt;h1&gt;Logic&lt;/h1&gt;" style="text;html=1;spacing=5;spacingTop=-20;whiteSpace=wrap;overflow=hidden;rounded=0;" parent="1" vertex="1">
          <mxGeometry x="319" y="40" width="91" height="40" as="geometry" />
        </mxCell>
        <mxCell id="i7q-057S_SzwTGJfoeeh-29" style="edgeStyle=orthogonalEdgeStyle;rounded=0;orthogonalLoop=1;jettySize=auto;html=1;exitX=0.5;exitY=1;exitDx=0;exitDy=0;" parent="1" source="i7q-057S_SzwTGJfoeeh-2" target="i7q-057S_SzwTGJfoeeh-28" edge="1">
          <mxGeometry relative="1" as="geometry" />
        </mxCell>
        <mxCell id="i7q-057S_SzwTGJfoeeh-2" value="ILogic" style="rounded=1;whiteSpace=wrap;html=1;" parent="1" vertex="1">
          <mxGeometry x="510" y="20" width="125.5" height="40" as="geometry" />
        </mxCell>
        <mxCell id="i7q-057S_SzwTGJfoeeh-25" value="" style="swimlane;startSize=0;labelBackgroundColor=none;labelBorderColor=none;fillColor=#f5f5f5;gradientColor=#b3b3b3;strokeColor=#666666;gradientDirection=north;" parent="1" vertex="1">
          <mxGeometry x="30" y="110" width="720" height="450" as="geometry">
            <mxRectangle x="40" y="100" width="50" height="40" as="alternateBounds" />
          </mxGeometry>
        </mxCell>
        <mxCell id="i7q-057S_SzwTGJfoeeh-31" style="edgeStyle=orthogonalEdgeStyle;rounded=0;orthogonalLoop=1;jettySize=auto;html=1;exitX=0.5;exitY=1;exitDx=0;exitDy=0;" parent="i7q-057S_SzwTGJfoeeh-25" source="i7q-057S_SzwTGJfoeeh-5" target="i7q-057S_SzwTGJfoeeh-6" edge="1">
          <mxGeometry relative="1" as="geometry">
            <Array as="points">
              <mxPoint x="283" y="130" />
              <mxPoint x="105" y="130" />
            </Array>
          </mxGeometry>
        </mxCell>
        <mxCell id="i7q-057S_SzwTGJfoeeh-41" style="edgeStyle=orthogonalEdgeStyle;rounded=0;orthogonalLoop=1;jettySize=auto;html=1;exitX=0.5;exitY=1;exitDx=0;exitDy=0;entryX=0.5;entryY=0;entryDx=0;entryDy=0;" parent="i7q-057S_SzwTGJfoeeh-25" source="i7q-057S_SzwTGJfoeeh-5" target="i7q-057S_SzwTGJfoeeh-40" edge="1">
          <mxGeometry relative="1" as="geometry" />
        </mxCell>
        <mxCell id="i7q-057S_SzwTGJfoeeh-42" style="edgeStyle=orthogonalEdgeStyle;rounded=0;orthogonalLoop=1;jettySize=auto;html=1;exitX=0.5;exitY=1;exitDx=0;exitDy=0;entryX=0.5;entryY=0;entryDx=0;entryDy=0;" parent="i7q-057S_SzwTGJfoeeh-25" source="i7q-057S_SzwTGJfoeeh-5" target="i7q-057S_SzwTGJfoeeh-30" edge="1">
          <mxGeometry relative="1" as="geometry">
            <Array as="points">
              <mxPoint x="283" y="130" />
              <mxPoint x="195" y="130" />
            </Array>
          </mxGeometry>
        </mxCell>
        <mxCell id="i7q-057S_SzwTGJfoeeh-55" style="edgeStyle=orthogonalEdgeStyle;rounded=0;orthogonalLoop=1;jettySize=auto;html=1;exitX=0.5;exitY=1;exitDx=0;exitDy=0;entryX=0.5;entryY=0;entryDx=0;entryDy=0;" parent="i7q-057S_SzwTGJfoeeh-25" source="i7q-057S_SzwTGJfoeeh-5" target="i7q-057S_SzwTGJfoeeh-53" edge="1">
          <mxGeometry relative="1" as="geometry">
            <Array as="points">
              <mxPoint x="283" y="130" />
              <mxPoint x="381" y="130" />
            </Array>
          </mxGeometry>
        </mxCell>
        <mxCell id="i7q-057S_SzwTGJfoeeh-56" style="edgeStyle=orthogonalEdgeStyle;rounded=0;orthogonalLoop=1;jettySize=auto;html=1;exitX=0.5;exitY=1;exitDx=0;exitDy=0;entryX=0.5;entryY=0;entryDx=0;entryDy=0;" parent="i7q-057S_SzwTGJfoeeh-25" source="i7q-057S_SzwTGJfoeeh-5" target="i7q-057S_SzwTGJfoeeh-54" edge="1">
          <mxGeometry relative="1" as="geometry">
            <Array as="points">
              <mxPoint x="283" y="130" />
              <mxPoint x="481" y="130" />
            </Array>
          </mxGeometry>
        </mxCell>
        <mxCell id="i7q-057S_SzwTGJfoeeh-5" value="GameObject" style="rounded=1;whiteSpace=wrap;html=1;" parent="i7q-057S_SzwTGJfoeeh-25" vertex="1">
          <mxGeometry x="220" y="80" width="125.5" height="40" as="geometry" />
        </mxCell>
        <mxCell id="i7q-057S_SzwTGJfoeeh-6" value="Image" style="rounded=1;whiteSpace=wrap;html=1;" parent="i7q-057S_SzwTGJfoeeh-25" vertex="1">
          <mxGeometry x="70" y="150" width="70" height="30" as="geometry" />
        </mxCell>
        <mxCell id="i7q-057S_SzwTGJfoeeh-30" value="Text" style="rounded=1;whiteSpace=wrap;html=1;" parent="i7q-057S_SzwTGJfoeeh-25" vertex="1">
          <mxGeometry x="160" y="150" width="70" height="30" as="geometry" />
        </mxCell>
        <mxCell id="i7q-057S_SzwTGJfoeeh-44" style="edgeStyle=orthogonalEdgeStyle;rounded=0;orthogonalLoop=1;jettySize=auto;html=1;exitX=0.5;exitY=1;exitDx=0;exitDy=0;entryX=0.5;entryY=0;entryDx=0;entryDy=0;" parent="i7q-057S_SzwTGJfoeeh-25" source="i7q-057S_SzwTGJfoeeh-40" edge="1">
          <mxGeometry relative="1" as="geometry">
            <mxPoint x="95" y="230" as="targetPoint" />
          </mxGeometry>
        </mxCell>
        <mxCell id="i7q-057S_SzwTGJfoeeh-47" style="edgeStyle=orthogonalEdgeStyle;rounded=0;orthogonalLoop=1;jettySize=auto;html=1;exitX=0.5;exitY=1;exitDx=0;exitDy=0;" parent="i7q-057S_SzwTGJfoeeh-25" source="i7q-057S_SzwTGJfoeeh-40" target="i7q-057S_SzwTGJfoeeh-46" edge="1">
          <mxGeometry relative="1" as="geometry" />
        </mxCell>
        <mxCell id="i7q-057S_SzwTGJfoeeh-48" style="edgeStyle=orthogonalEdgeStyle;rounded=0;orthogonalLoop=1;jettySize=auto;html=1;exitX=0.5;exitY=1;exitDx=0;exitDy=0;entryX=0.5;entryY=0;entryDx=0;entryDy=0;" parent="i7q-057S_SzwTGJfoeeh-25" source="i7q-057S_SzwTGJfoeeh-40" target="i7q-057S_SzwTGJfoeeh-45" edge="1">
          <mxGeometry relative="1" as="geometry" />
        </mxCell>
        <mxCell id="i7q-057S_SzwTGJfoeeh-40" value="Button" style="rounded=1;whiteSpace=wrap;html=1;" parent="i7q-057S_SzwTGJfoeeh-25" vertex="1">
          <mxGeometry x="247.75" y="150" width="70" height="30" as="geometry" />
        </mxCell>
        <mxCell id="i7q-057S_SzwTGJfoeeh-65" style="edgeStyle=orthogonalEdgeStyle;rounded=0;orthogonalLoop=1;jettySize=auto;html=1;exitX=0.5;exitY=1;exitDx=0;exitDy=0;entryX=0.5;entryY=0;entryDx=0;entryDy=0;" parent="i7q-057S_SzwTGJfoeeh-25" source="i7q-057S_SzwTGJfoeeh-43" target="i7q-057S_SzwTGJfoeeh-64" edge="1">
          <mxGeometry relative="1" as="geometry" />
        </mxCell>
        <mxCell id="i7q-057S_SzwTGJfoeeh-43" value="GoToSceneButton" style="rounded=1;whiteSpace=wrap;html=1;" parent="i7q-057S_SzwTGJfoeeh-25" vertex="1">
          <mxGeometry x="40" y="230" width="110" height="30" as="geometry" />
        </mxCell>
        <mxCell id="i7q-057S_SzwTGJfoeeh-45" value="Cell" style="rounded=1;whiteSpace=wrap;html=1;" parent="i7q-057S_SzwTGJfoeeh-25" vertex="1">
          <mxGeometry x="160" y="230" width="50" height="30" as="geometry" />
        </mxCell>
        <mxCell id="i7q-057S_SzwTGJfoeeh-46" value="DaltonicButton" style="rounded=1;whiteSpace=wrap;html=1;" parent="i7q-057S_SzwTGJfoeeh-25" vertex="1">
          <mxGeometry x="230" y="230" width="100" height="30" as="geometry" />
        </mxCell>
        <mxCell id="i7q-057S_SzwTGJfoeeh-49" value="DaltonicButton" style="rounded=1;whiteSpace=wrap;html=1;" parent="i7q-057S_SzwTGJfoeeh-25" vertex="1">
          <mxGeometry x="345.5" y="230" width="100" height="30" as="geometry" />
        </mxCell>
        <mxCell id="i7q-057S_SzwTGJfoeeh-50" value="ColouringCell" style="rounded=1;whiteSpace=wrap;html=1;" parent="i7q-057S_SzwTGJfoeeh-25" vertex="1">
          <mxGeometry x="550" y="230" width="120" height="30" as="geometry" />
        </mxCell>
        <mxCell id="i7q-057S_SzwTGJfoeeh-51" style="edgeStyle=orthogonalEdgeStyle;rounded=0;orthogonalLoop=1;jettySize=auto;html=1;exitX=0;exitY=0.5;exitDx=0;exitDy=0;entryX=0.5;entryY=1;entryDx=0;entryDy=0;" parent="i7q-057S_SzwTGJfoeeh-25" source="i7q-057S_SzwTGJfoeeh-4" target="i7q-057S_SzwTGJfoeeh-45" edge="1">
          <mxGeometry relative="1" as="geometry" />
        </mxCell>
        <mxCell id="i7q-057S_SzwTGJfoeeh-52" style="edgeStyle=orthogonalEdgeStyle;rounded=0;orthogonalLoop=1;jettySize=auto;html=1;exitX=1;exitY=0.5;exitDx=0;exitDy=0;entryX=0.5;entryY=1;entryDx=0;entryDy=0;" parent="i7q-057S_SzwTGJfoeeh-25" source="i7q-057S_SzwTGJfoeeh-4" target="i7q-057S_SzwTGJfoeeh-50" edge="1">
          <mxGeometry relative="1" as="geometry" />
        </mxCell>
        <mxCell id="i7q-057S_SzwTGJfoeeh-57" style="edgeStyle=orthogonalEdgeStyle;rounded=0;orthogonalLoop=1;jettySize=auto;html=1;exitX=0.75;exitY=0;exitDx=0;exitDy=0;entryX=0.5;entryY=1;entryDx=0;entryDy=0;" parent="i7q-057S_SzwTGJfoeeh-25" source="i7q-057S_SzwTGJfoeeh-4" target="i7q-057S_SzwTGJfoeeh-54" edge="1">
          <mxGeometry relative="1" as="geometry">
            <Array as="points">
              <mxPoint x="480" y="390" />
            </Array>
          </mxGeometry>
        </mxCell>
        <mxCell id="i7q-057S_SzwTGJfoeeh-4" value="DaltonicListener" style="rounded=1;whiteSpace=wrap;html=1;" parent="i7q-057S_SzwTGJfoeeh-25" vertex="1">
          <mxGeometry x="300" y="390" width="125.5" height="40" as="geometry" />
        </mxCell>
        <mxCell id="i7q-057S_SzwTGJfoeeh-53" value="Container" style="rounded=1;whiteSpace=wrap;html=1;" parent="i7q-057S_SzwTGJfoeeh-25" vertex="1">
          <mxGeometry x="345.5" y="150" width="70" height="30" as="geometry" />
        </mxCell>
        <mxCell id="i7q-057S_SzwTGJfoeeh-54" value="Table" style="rounded=1;whiteSpace=wrap;html=1;" parent="i7q-057S_SzwTGJfoeeh-25" vertex="1">
          <mxGeometry x="445.5" y="150" width="70" height="30" as="geometry" />
        </mxCell>
        <mxCell id="i7q-057S_SzwTGJfoeeh-28" value="Logic" style="rounded=1;whiteSpace=wrap;html=1;" parent="i7q-057S_SzwTGJfoeeh-25" vertex="1">
          <mxGeometry x="240" y="20" width="125.5" height="40" as="geometry" />
        </mxCell>
        <mxCell id="i7q-057S_SzwTGJfoeeh-61" style="edgeStyle=orthogonalEdgeStyle;rounded=0;orthogonalLoop=1;jettySize=auto;html=1;exitX=0.5;exitY=1;exitDx=0;exitDy=0;" parent="i7q-057S_SzwTGJfoeeh-25" source="i7q-057S_SzwTGJfoeeh-59" target="i7q-057S_SzwTGJfoeeh-60" edge="1">
          <mxGeometry relative="1" as="geometry" />
        </mxCell>
        <mxCell id="i7q-057S_SzwTGJfoeeh-59" value="IScene" style="rounded=1;whiteSpace=wrap;html=1;" parent="i7q-057S_SzwTGJfoeeh-25" vertex="1">
          <mxGeometry x="567.75" y="10" width="74.5" height="30" as="geometry" />
        </mxCell>
        <mxCell id="i7q-057S_SzwTGJfoeeh-63" style="edgeStyle=orthogonalEdgeStyle;rounded=0;orthogonalLoop=1;jettySize=auto;html=1;exitX=0.5;exitY=1;exitDx=0;exitDy=0;entryX=0.5;entryY=0;entryDx=0;entryDy=0;" parent="i7q-057S_SzwTGJfoeeh-25" source="i7q-057S_SzwTGJfoeeh-60" target="i7q-057S_SzwTGJfoeeh-62" edge="1">
          <mxGeometry relative="1" as="geometry" />
        </mxCell>
        <mxCell id="i7q-057S_SzwTGJfoeeh-60" value="Scene" style="rounded=1;whiteSpace=wrap;html=1;" parent="i7q-057S_SzwTGJfoeeh-25" vertex="1">
          <mxGeometry x="567.75" y="70" width="74.5" height="30" as="geometry" />
        </mxCell>
        <mxCell id="i7q-057S_SzwTGJfoeeh-62" value="MenuScene, &lt;br&gt;GameScene, ChooseLevelScene &lt;br&gt;and &lt;br&gt;WinScene" style="rounded=1;whiteSpace=wrap;html=1;" parent="i7q-057S_SzwTGJfoeeh-25" vertex="1">
          <mxGeometry x="530" y="130" width="150" height="90" as="geometry" />
        </mxCell>
        <mxCell id="i7q-057S_SzwTGJfoeeh-64" value="GoToMenu,&lt;br&gt;GoToGameScene,&lt;br&gt;and&lt;br&gt;GoToChooseLevelScene" style="rounded=1;whiteSpace=wrap;html=1;" parent="i7q-057S_SzwTGJfoeeh-25" vertex="1">
          <mxGeometry x="25" y="290" width="140" height="120" as="geometry" />
        </mxCell>
      </root>
    </mxGraphModel>
  </diagram>
</mxfile>
